<?xml version="1.0" standalone="no"?>
<!DOCTYPE svg PUBLIC "-//W3C//DTD SVG 20010904//EN"
 "http://www.w3.org/TR/2001/REC-SVG-20010904/DTD/svg10.dtd">
<svg version="1.0" xmlns="http://www.w3.org/2000/svg"
 width="1628.000000pt" height="1628.000000pt" viewBox="0 0 1628.000000 1628.000000"
 preserveAspectRatio="xMidYMid meet">

<g transform="translate(0.000000,1628.000000) scale(0.100000,-0.100000)"
fill="#000000" stroke="none">
<path d="M0 8140 l0 -8140 8140 0 8140 0 0 8140 0 8140 -8140 0 -8140 0 0
-8140z m11524 3930 c6 -6 17 -10 27 -10 9 0 33 -13 54 -30 21 -16 44 -30 51
-30 7 0 18 -9 24 -20 6 -11 18 -20 26 -20 13 0 82 -67 218 -210 42 -45 84
-140 113 -255 21 -86 14 -244 -15 -309 -12 -27 -22 -58 -22 -70 0 -11 -9 -32
-20 -46 -11 -14 -20 -32 -20 -40 0 -18 -65 -100 -135 -170 -20 -21 -86 -60
-110 -66 -14 -3 -29 -12 -33 -18 -4 -7 -23 -17 -42 -23 -63 -21 -144 -51 -183
-68 -31 -13 -36 -19 -27 -29 6 -8 26 -17 45 -20 50 -10 47 -43 -6 -91 -43 -38
-114 -159 -103 -176 12 -20 33 -7 72 44 46 59 125 137 140 137 5 0 14 -6 20
-13 15 -18 -24 -93 -61 -119 -41 -29 -51 -63 -29 -93 27 -38 79 -28 117 23 17
22 20 43 20 118 0 84 -2 92 -27 123 -16 18 -28 37 -28 42 0 18 49 9 73 -13 13
-13 37 -30 54 -39 59 -32 82 -123 43 -172 -11 -14 -20 -28 -20 -31 0 -13 -70
-76 -84 -76 -9 0 -22 -11 -31 -23 -14 -22 -22 -24 -93 -22 -42 0 -96 7 -119
14 -22 8 -53 11 -67 7 -41 -10 -88 -59 -126 -130 -19 -37 -41 -77 -47 -89 -22
-39 -15 -73 26 -124 36 -45 95 -112 141 -159 11 -12 20 -24 20 -27 0 -9 143
-147 152 -147 5 0 8 -9 8 -20 0 -11 6 -20 14 -20 7 0 19 -7 27 -16 20 -24 105
-64 137 -64 72 0 142 -23 180 -59 61 -57 122 -166 122 -217 0 -83 -95 -211
-194 -261 -42 -21 -60 -24 -115 -21 -81 5 -163 40 -179 77 -7 14 -21 40 -32
56 -11 17 -22 35 -24 40 -9 20 -25 138 -20 146 16 26 -106 161 -210 234 -31
22 -85 61 -119 87 -34 27 -67 51 -72 55 -6 5 -36 29 -67 56 -64 53 -107 62
-143 27 -39 -39 -83 -70 -133 -95 -28 -14 -54 -30 -57 -35 -3 -6 -18 -10 -33
-10 -15 0 -35 -9 -45 -20 -9 -11 -23 -20 -32 -20 -8 0 -29 -9 -47 -20 -18 -11
-42 -20 -53 -20 -11 0 -33 -9 -50 -20 -16 -11 -41 -20 -54 -20 -39 0 -179 -39
-187 -52 -3 -5 19 -36 49 -71 68 -78 97 -157 98 -271 1 -97 6 -115 42 -158 62
-75 77 -97 77 -112 0 -9 4 -16 10 -16 5 0 17 -15 26 -32 9 -18 25 -43 37 -55
21 -24 34 -44 67 -110 12 -22 30 -49 41 -59 10 -9 19 -23 19 -30 0 -7 6 -19
13 -26 6 -7 20 -29 30 -48 39 -75 56 -105 66 -117 6 -6 13 -23 17 -37 3 -14
12 -30 20 -37 7 -6 16 -26 20 -45 3 -18 12 -38 20 -45 8 -6 14 -19 14 -28 1
-9 9 -41 20 -71 29 -83 24 -181 -12 -226 -51 -64 -193 -192 -316 -287 -41 -32
-106 -92 -138 -128 -58 -65 -114 -96 -190 -104 -38 -4 -74 -11 -80 -16 -6 -5
-42 -18 -80 -29 -38 -11 -77 -25 -86 -30 -40 -23 -138 -5 -138 25 0 9 19 37
43 63 37 40 87 113 87 127 0 10 -60 35 -82 34 -13 0 -50 2 -83 5 -84 6 -214
-16 -232 -39 -7 -11 -13 -37 -13 -59 0 -79 61 -290 86 -300 8 -3 14 -14 14
-24 0 -10 10 -27 21 -38 12 -10 32 -36 45 -56 14 -21 30 -38 37 -38 12 0 57
87 57 111 0 7 10 34 22 61 30 66 51 64 85 -9 26 -54 27 -67 28 -205 1 -87 5
-152 12 -160 6 -7 14 -31 18 -53 4 -22 18 -58 31 -80 22 -37 405 -421 679
-680 64 -60 121 -116 128 -123 7 -8 21 -24 32 -36 52 -57 86 -106 91 -133 5
-26 1 -32 -35 -56 -48 -32 -64 -73 -35 -94 10 -7 35 -21 56 -31 20 -9 41 -27
47 -39 6 -13 15 -23 20 -23 17 0 22 33 7 49 -7 9 -23 35 -35 59 -29 58 -16 77
45 67 50 -7 49 -8 59 107 4 43 11 80 16 84 15 9 10 99 -8 135 -16 31 -18 32
-21 11 -2 -12 2 -37 8 -56 10 -33 5 -66 -10 -66 -5 0 -19 13 -33 29 -13 16
-33 31 -43 33 -15 2 -20 -4 -22 -34 -4 -44 12 -78 36 -78 10 0 23 -5 30 -12
17 -17 15 -75 -3 -82 -16 -6 -55 26 -55 46 0 6 -6 19 -13 27 -8 9 -22 43 -31
77 l-18 61 24 39 c14 21 31 56 37 77 7 21 24 45 37 54 13 8 27 26 30 38 3 12
17 28 32 34 22 11 28 10 39 -5 7 -10 13 -32 13 -49 0 -17 7 -40 15 -51 22 -29
37 -1 30 59 -11 90 19 144 119 217 65 48 114 97 133 135 5 11 18 54 27 95 30
132 -15 171 -100 86 -109 -108 -140 -100 -124 30 21 168 22 216 10 326 -6 62
-19 129 -27 148 -8 19 -21 55 -28 80 -14 50 -51 156 -73 210 -14 34 -32 76
-67 154 -9 21 -34 61 -55 89 -42 55 -41 75 3 98 50 28 255 -3 349 -52 20 -10
43 -19 50 -19 8 0 23 -7 33 -15 18 -14 84 -58 141 -95 13 -8 24 -21 24 -27 0
-7 4 -13 10 -13 11 0 110 -94 110 -105 0 -5 7 -15 15 -24 71 -77 137 -190 175
-301 12 -36 27 -74 33 -85 20 -38 57 -259 57 -347 0 -51 -2 -58 -19 -58 -11 0
-23 9 -26 20 -3 11 -10 20 -14 20 -4 0 -20 22 -36 50 -17 27 -35 50 -41 50 -7
0 -22 11 -35 25 -13 13 -32 25 -42 25 -21 0 -33 -26 -19 -43 11 -13 42 -211
42 -269 0 -20 4 -39 9 -42 5 -3 12 -27 16 -53 8 -58 38 -139 59 -162 55 -59
76 -85 76 -92 0 -4 16 -17 35 -29 19 -12 35 -27 35 -34 0 -7 10 -22 23 -33 44
-40 70 -81 109 -174 40 -93 40 -96 42 -224 1 -117 -1 -134 -21 -171 -34 -64
-73 -71 -126 -24 -19 16 -42 30 -51 30 -24 0 -20 -43 9 -86 30 -45 31 -61 4
-69 -28 -9 -82 43 -97 94 -7 20 -11 100 -11 177 0 131 -7 184 -29 198 -5 3
-13 21 -16 39 -8 41 -64 117 -87 117 -16 0 -69 -88 -69 -115 0 -8 -7 -20 -15
-28 -13 -14 -24 -38 -55 -127 -7 -19 -19 -48 -26 -65 -23 -51 -45 -118 -55
-164 -5 -24 -13 -49 -18 -55 -5 -6 -15 -34 -21 -61 -7 -28 -20 -77 -30 -110
-19 -64 -41 -222 -43 -320 -2 -58 -3 -60 -42 -82 -29 -16 -57 -23 -100 -23
-65 -1 -160 -13 -240 -30 -27 -5 -68 -13 -90 -16 -42 -6 -147 -38 -202 -61
-17 -7 -39 -13 -50 -13 -10 0 -35 -9 -56 -20 -20 -11 -46 -20 -57 -20 -12 0
-32 -7 -46 -16 -13 -9 -45 -20 -69 -25 -25 -5 -65 -17 -89 -29 -25 -11 -51
-20 -59 -20 -8 0 -30 -6 -48 -14 -19 -8 -57 -17 -86 -21 -28 -4 -54 -13 -57
-20 -10 -26 -269 -36 -421 -17 -173 23 -189 23 -215 10 -40 -22 -37 -51 10
-88 54 -43 101 -74 123 -83 22 -8 23 -55 1 -64 -29 -11 -270 43 -394 89 -84
31 -272 127 -301 154 -14 13 -32 24 -40 24 -8 0 -40 22 -70 50 -29 27 -61 52
-70 55 -9 3 -21 17 -27 30 -6 14 -18 25 -27 25 -8 0 -15 4 -15 8 0 5 -15 29
-34 53 -36 46 -126 215 -126 235 0 7 -9 34 -20 59 -26 60 -52 187 -44 209 11
30 40 37 91 25 27 -7 52 -16 58 -20 5 -5 15 -9 23 -9 8 0 28 -7 45 -15 40 -18
108 -43 167 -60 44 -14 124 -41 165 -56 11 -4 47 -13 80 -20 33 -7 65 -16 70
-20 11 -7 123 -16 342 -25 171 -8 185 -15 153 -80 -11 -22 -36 -56 -55 -74
-38 -37 -43 -55 -19 -64 22 -8 209 -8 218 1 4 4 26 13 49 19 23 6 69 19 101
28 33 9 74 26 92 36 17 11 40 20 51 20 12 0 26 7 33 15 7 8 18 15 25 15 6 0
20 9 30 20 10 11 24 20 32 20 23 0 37 44 25 79 -13 37 -4 68 25 84 11 7 49 32
84 56 35 24 84 52 108 63 42 18 43 20 38 54 -6 38 -22 60 -138 184 -101 109
-97 104 -171 178 -35 35 -70 71 -79 80 -15 16 -124 117 -271 252 -55 50 -60
52 -100 47 -38 -5 -75 5 -88 23 -3 4 -25 11 -49 15 -39 6 -43 5 -38 -10 4 -9
7 -21 7 -26 0 -5 15 -15 33 -23 45 -19 94 -73 80 -87 -9 -9 -24 -8 -59 4 -27
9 -52 13 -57 10 -12 -7 33 -45 88 -72 l49 -24 26 32 27 31 26 -21 c15 -11 27
-26 27 -33 0 -7 9 -23 20 -36 11 -13 20 -27 20 -33 0 -16 107 -160 169 -227
80 -86 105 -135 94 -181 -10 -36 -22 -43 -95 -54 -21 -3 -38 -10 -38 -14 0
-14 38 -20 95 -14 52 5 54 7 57 37 5 47 45 48 108 1 28 -20 50 -41 50 -45 0
-5 9 -12 21 -15 15 -5 19 -14 17 -33 -3 -26 -6 -27 -65 -30 -63 -3 -73 -8 -52
-29 20 -20 1 -60 -37 -78 -33 -15 -38 -15 -69 -1 -18 9 -37 16 -42 16 -5 0
-20 11 -33 25 -13 14 -30 25 -37 25 -7 0 -19 11 -25 25 -6 14 -16 25 -22 25
-15 1 -136 114 -136 127 0 6 -10 17 -22 26 -13 8 -32 32 -43 53 -10 22 -35 64
-55 94 -119 184 -164 299 -185 472 -7 65 -16 122 -19 127 -7 11 -58 -2 -92
-24 -13 -8 -28 -15 -33 -15 -6 0 -41 -17 -78 -37 -69 -39 -173 -80 -228 -90
-16 -3 -34 -9 -40 -13 -5 -4 -22 -10 -36 -13 l-26 -7 -5 -130 c-7 -158 -10
-163 -131 -208 -112 -41 -142 -48 -292 -66 -261 -33 -667 -31 -817 4 -23 5
-81 14 -128 19 -110 13 -168 26 -205 45 -16 9 -37 16 -46 16 -8 0 -28 13 -43
29 -28 29 -29 33 -33 163 -4 149 -6 158 -29 158 -8 0 -69 23 -133 50 -65 28
-122 50 -129 50 -6 0 -31 13 -55 30 -24 16 -68 41 -98 55 -30 14 -65 32 -79
40 -14 8 -42 23 -63 35 l-38 21 -74 -76 c-40 -41 -79 -75 -85 -75 -6 0 -14 -8
-17 -17 -9 -22 -129 -143 -143 -143 -6 0 -14 -8 -17 -17 -9 -22 -129 -143
-143 -143 -6 0 -14 -8 -17 -17 -9 -22 -129 -143 -143 -143 -6 0 -14 -8 -17
-17 -10 -25 -130 -143 -146 -143 -19 0 -42 -69 -28 -83 6 -6 11 -8 11 -4 0 13
104 -34 118 -54 7 -10 20 -19 28 -19 8 0 14 -4 14 -8 0 -5 11 -14 25 -20 33
-15 32 -32 -3 -32 -15 0 -45 -9 -67 -20 -22 -11 -56 -20 -77 -20 -31 0 -38 4
-38 19 0 13 8 21 22 23 30 4 35 34 8 48 -27 14 -70 5 -70 -15 0 -8 -11 -22
-25 -31 -29 -19 -33 -49 -7 -63 60 -32 240 -12 276 31 10 13 26 22 35 20 32
-6 81 -37 87 -55 3 -10 15 -23 27 -29 27 -12 121 -121 126 -145 1 -10 14 -27
26 -38 13 -11 32 -36 43 -55 24 -45 115 -81 221 -87 91 -6 106 5 63 46 -18 16
-32 33 -32 38 0 8 -37 42 -100 92 -46 36 -18 42 187 41 134 0 216 5 274 16 46
9 107 20 134 25 77 13 144 34 157 47 7 7 24 12 38 12 14 0 41 8 60 19 19 10
51 21 71 25 20 3 44 15 54 26 10 11 33 22 51 26 19 3 34 10 34 15 0 5 7 9 16
9 9 0 32 9 50 21 24 15 46 19 81 17 46 -3 48 -5 57 -38 6 -25 4 -57 -7 -105
-35 -156 -42 -174 -131 -334 -23 -40 -108 -142 -166 -198 -79 -76 -134 -123
-146 -123 -7 0 -28 -13 -46 -28 -18 -16 -52 -36 -75 -45 -23 -9 -61 -25 -85
-36 -77 -34 -128 -51 -154 -51 -13 0 -35 -7 -47 -15 -13 -8 -71 -22 -131 -32
l-108 -17 -19 23 c-23 28 -21 32 59 115 35 37 60 71 56 77 -5 8 -52 9 -158 5
-165 -8 -360 -46 -384 -75 -33 -42 -70 -78 -85 -84 -9 -3 -17 -12 -17 -19 -1
-7 -19 -26 -41 -43 -22 -16 -53 -42 -68 -56 -15 -14 -42 -31 -59 -38 -18 -8
-32 -17 -32 -22 0 -15 -101 -55 -198 -80 -81 -21 -96 -22 -149 -11 -33 7 -72
12 -88 12 -21 0 -39 11 -67 41 l-38 40 28 35 c15 19 37 41 50 50 21 14 32 64
13 64 -18 0 -77 -24 -103 -42 -35 -24 -48 -23 -48 5 0 15 12 32 33 48 30 23
39 24 167 24 135 0 180 9 272 56 10 5 25 9 34 9 16 0 94 71 94 85 0 14 -65 64
-105 81 -22 9 -59 24 -83 35 -23 10 -52 19 -63 19 -11 0 -22 7 -25 15 -4 8
-17 15 -31 15 -14 0 -37 7 -51 15 -15 8 -99 35 -187 60 -88 25 -182 52 -210
59 -27 8 -88 18 -135 21 -115 8 -181 23 -207 48 -20 17 -23 31 -24 91 0 39 -4
96 -9 126 -15 95 -71 299 -106 385 -6 17 -19 53 -28 80 -8 28 -23 73 -31 100
-9 28 -22 70 -30 95 -7 25 -23 74 -36 110 -12 36 -25 74 -29 85 -4 11 -15 47
-25 80 -9 33 -22 69 -28 80 -17 30 -22 408 -7 525 19 143 18 174 -3 178 -11 2
-23 -7 -34 -25 -24 -41 -134 -133 -160 -133 -32 0 -46 32 -34 78 5 20 17 69
27 107 23 99 64 217 80 236 8 8 14 24 14 34 0 33 101 223 150 282 6 7 10 16
10 20 0 10 125 143 135 143 3 0 20 13 36 29 41 41 171 127 205 135 16 4 37 15
46 23 10 9 34 19 55 23 21 5 82 18 135 29 125 26 154 19 145 -36 -4 -20 -10
-39 -15 -42 -5 -3 -12 -19 -16 -35 -4 -17 -16 -42 -27 -57 -10 -15 -19 -35
-19 -46 0 -10 -7 -31 -15 -46 -8 -15 -17 -45 -21 -65 -4 -20 -12 -46 -18 -57
-13 -24 -26 -71 -65 -232 -53 -215 -71 -403 -52 -542 9 -63 9 -95 2 -109 -9
-17 -20 -9 -116 85 -91 90 -108 103 -121 92 -11 -9 -14 -24 -11 -53 10 -79 38
-211 47 -220 6 -6 10 -23 10 -39 0 -15 8 -49 18 -75 11 -26 25 -63 32 -82 29
-83 37 -100 51 -117 8 -10 28 -44 43 -75 16 -32 32 -58 36 -58 7 0 14 12 64
123 20 42 40 77 46 77 5 0 16 13 24 29 8 15 24 39 35 52 11 13 42 50 68 81 26
31 66 70 88 86 22 16 54 45 72 65 17 19 45 43 63 52 17 9 34 23 37 31 3 7 9
14 14 14 5 0 48 22 97 49 50 29 116 57 157 67 39 9 82 22 96 30 40 20 150 28
172 12 16 -12 16 -15 -1 -47 -28 -51 -44 -58 -79 -33 l-30 21 -20 -22 c-22
-23 -56 -125 -47 -139 9 -14 25 -9 48 19 26 30 46 24 46 -13 0 -20 -5 -24 -30
-24 -20 0 -30 -5 -30 -15 0 -8 -12 -21 -27 -30 -16 -9 -41 -24 -58 -35 -16
-11 -43 -27 -60 -36 -16 -9 -45 -30 -63 -45 -18 -16 -38 -29 -44 -29 -6 0 -30
-19 -53 -42 -23 -24 -68 -68 -101 -99 -32 -31 -90 -90 -129 -130 -77 -81 -103
-99 -146 -99 -22 0 -30 6 -35 25 -8 31 10 55 41 55 41 0 47 20 27 100 -22 90
-39 100 -48 30 -7 -55 -16 -65 -54 -65 -20 0 -26 -6 -28 -28 -2 -16 4 -39 12
-52 9 -13 16 -33 16 -44 0 -10 7 -21 15 -25 15 -5 65 -105 82 -161 4 -16 16
-31 25 -33 14 -3 84 37 98 56 3 4 22 20 44 36 21 16 71 62 111 102 41 41 77
74 82 74 4 0 24 20 43 45 19 24 40 44 46 45 6 0 17 12 24 26 8 14 27 32 42 40
15 8 28 18 28 23 0 5 36 45 80 90 44 44 80 85 80 89 0 5 12 19 26 33 46 42 62
76 57 123 -5 42 -2 52 52 155 10 18 20 53 23 77 4 40 7 44 31 44 39 0 69 26
77 64 5 32 67 105 82 98 4 -1 12 35 18 80 7 46 21 105 33 131 19 44 23 48 52
45 27 -3 33 -9 50 -58 10 -30 19 -62 19 -72 0 -42 50 -33 67 13 7 17 20 33 30
35 37 10 45 41 44 169 -1 67 3 154 9 194 l12 72 -28 26 c-27 25 -29 25 -83 13
-53 -11 -88 -24 -156 -55 -16 -8 -41 -17 -55 -20 -38 -9 -73 -42 -67 -63 22
-70 37 -95 66 -113 75 -46 44 -83 -65 -76 -75 4 -144 30 -197 74 -22 18 -41
23 -85 23 -47 1 -62 5 -88 28 -18 15 -39 44 -48 65 -18 44 -113 138 -168 168
-21 10 -38 23 -38 28 0 5 -15 18 -32 30 -81 51 -114 75 -121 87 -4 8 -14 14
-20 14 -7 0 -28 15 -47 33 -19 17 -47 41 -62 53 -15 11 -37 40 -49 63 -19 37
-21 53 -17 131 4 64 10 93 22 105 9 9 16 26 16 38 0 12 9 36 20 52 11 17 20
36 20 42 0 7 15 36 33 65 18 29 38 66 45 81 6 15 19 30 27 33 8 4 15 12 15 19
0 7 18 36 40 64 22 28 40 54 40 58 0 5 20 31 45 58 118 131 209 233 270 305
25 30 54 64 64 75 32 36 39 59 45 160 10 146 51 272 113 348 13 16 23 38 23
49 0 13 -62 81 -172 189 -95 93 -185 181 -200 196 -39 39 -82 35 -153 -13 -31
-22 -67 -46 -81 -54 -14 -8 -46 -35 -72 -58 -42 -40 -95 -79 -142 -107 -16
-10 -74 -62 -147 -132 -19 -18 -39 -33 -46 -33 -7 0 -25 -12 -39 -27 -15 -16
-41 -39 -58 -53 -53 -42 -164 -153 -205 -203 -34 -43 -39 -56 -43 -110 -5 -97
-55 -172 -142 -217 -34 -18 -67 -25 -130 -28 -75 -4 -91 -1 -131 19 -117 61
-166 194 -124 337 15 50 79 132 103 132 7 0 12 4 12 9 0 17 102 61 141 61 41
0 125 37 148 64 8 9 17 16 21 16 9 0 180 171 180 181 0 4 12 20 28 36 15 16
59 64 97 108 39 44 83 92 98 107 15 15 69 76 118 135 50 59 97 112 105 116 8
4 14 13 14 19 0 18 -59 0 -106 -32 -25 -16 -49 -30 -55 -30 -5 0 -26 -9 -46
-20 -21 -11 -48 -20 -61 -20 -13 0 -32 -4 -42 -10 -10 -5 -74 -15 -142 -20
-157 -14 -241 -3 -302 38 -24 17 -52 33 -63 36 -16 5 -104 87 -143 134 -21 25
-55 116 -70 187 -7 33 -12 110 -12 170 1 201 -39 410 -87 458 -6 6 -11 21 -11
34 0 12 -6 47 -14 77 -20 74 -2 250 32 311 6 11 24 48 41 82 64 129 117 189
232 265 117 78 198 113 316 138 l102 21 103 -21 c103 -21 172 -47 217 -82 13
-10 30 -18 38 -18 8 0 27 -12 42 -27 15 -16 40 -37 55 -48 22 -17 57 -64 123
-170 7 -11 22 -40 34 -65 11 -25 27 -58 35 -73 8 -16 14 -40 14 -53 0 -13 4
-32 10 -42 5 -9 14 -29 20 -44 7 -22 16 -28 40 -28 23 0 30 4 30 19 0 11 -5
23 -10 26 -9 5 -5 47 7 67 7 13 48 -13 68 -45 11 -17 36 -41 55 -54 19 -12 40
-27 47 -33 39 -32 68 10 32 45 -74 72 -139 144 -139 154 0 6 12 14 27 17 20 6
43 -1 89 -26 45 -24 69 -31 88 -26 43 11 32 40 -36 96 -58 47 -66 51 -101 45
-48 -7 -107 3 -107 19 0 15 46 42 87 51 18 3 35 11 38 16 4 5 13 5 23 0 9 -5
32 -15 51 -22 19 -7 50 -34 72 -62 43 -53 42 -49 43 -243 1 -95 3 -103 30
-139 16 -21 51 -51 78 -68 26 -16 48 -34 48 -38 0 -17 28 -9 41 12 9 13 20 18
32 14 21 -9 22 -28 2 -45 -8 -7 -12 -16 -9 -21 11 -18 51 -8 80 19 64 60 152
132 163 132 6 0 11 6 11 13 0 6 34 43 77 81 94 84 165 161 186 202 9 17 21 62
28 100 6 38 15 73 20 78 5 6 9 21 9 33 0 25 74 133 91 133 5 0 31 9 56 21 59
27 158 24 225 -6 55 -25 132 -101 153 -152 8 -20 15 -66 15 -104 0 -60 -4 -74
-36 -128 -20 -34 -40 -61 -45 -61 -5 0 -19 -11 -31 -25 -12 -14 -29 -25 -38
-25 -10 0 -29 -9 -43 -20 -14 -11 -38 -20 -54 -20 -50 -1 -117 -24 -157 -55
-21 -16 -75 -73 -119 -125 -44 -52 -86 -99 -93 -103 -8 -4 -14 -14 -14 -21 0
-8 -18 -33 -40 -57 -22 -24 -40 -50 -40 -56 0 -7 -4 -13 -9 -13 -5 0 -31 -21
-58 -46 -75 -71 -81 -74 -209 -85 -126 -11 -146 -19 -128 -47 10 -15 31 -17
171 -17 l160 0 41 -29 c23 -16 42 -35 42 -42 0 -7 13 -28 30 -47 32 -37 100
-171 100 -198 0 -9 6 -22 14 -28 8 -6 17 -33 21 -59 4 -26 10 -49 13 -52 4 -3
12 -14 18 -25 17 -29 74 -23 134 14 8 5 58 22 110 36 52 15 118 34 146 42 l52
16 6 68 c4 38 4 89 1 114 -6 36 -3 49 15 75 25 35 82 67 143 79 23 5 83 19
132 30 139 32 268 42 540 41 321 -2 401 -9 651 -63 122 -26 172 -49 191 -88 7
-13 15 -77 19 -142 4 -64 10 -118 13 -118 3 -1 18 -3 33 -4 15 -2 44 -9 65
-15 21 -6 90 -24 153 -40 63 -16 116 -34 118 -40 2 -5 13 -10 23 -10 11 0 41
-9 67 -19 26 -10 68 -26 94 -35 26 -10 66 -30 90 -46 60 -41 113 -41 136 0 9
16 21 30 25 30 4 0 32 25 62 55 30 30 59 55 65 55 5 0 10 7 10 15 0 8 16 27
35 42 19 15 35 33 35 40 0 6 8 14 18 18 9 3 25 17 35 30 17 24 17 26 -2 63
-11 21 -27 44 -35 51 -9 8 -16 18 -16 24 0 5 -10 20 -22 32 -13 12 -39 43 -58
69 -19 27 -46 60 -60 75 -37 39 -110 140 -110 151 0 6 -6 13 -12 15 -7 3 -35
35 -63 71 -27 35 -86 109 -130 164 -44 54 -88 110 -97 123 -10 14 -42 46 -73
72 -50 43 -61 48 -122 55 -38 4 -81 13 -98 19 -31 12 -108 61 -113 72 -1 3
-16 21 -33 40 -31 34 -31 35 -27 129 3 79 9 106 33 158 16 34 34 62 41 62 6 0
19 9 30 21 17 19 27 20 142 17 78 -2 125 -7 130 -14 4 -7 30 -22 57 -34 44
-19 53 -29 77 -78 14 -31 29 -77 32 -102 11 -74 31 -121 82 -182 26 -32 52
-58 56 -58 5 0 13 -11 18 -25 5 -14 14 -25 20 -25 6 0 33 -21 60 -47 54 -53
97 -91 161 -143 23 -19 66 -56 94 -82 29 -27 57 -48 62 -48 6 0 18 -11 27 -24
8 -14 24 -27 35 -31 11 -3 23 -15 26 -26 4 -10 13 -19 20 -19 8 0 30 -13 48
-30 19 -16 44 -30 56 -30 12 0 24 -7 27 -15 4 -8 18 -15 33 -15 15 0 48 -7 74
-16 58 -20 248 -17 269 4 23 23 -11 32 -89 26 -90 -8 -217 11 -268 40 -51 28
-112 128 -131 215 -8 36 -19 84 -25 106 -18 66 -22 122 -11 157 6 18 23 73 37
121 15 48 38 101 51 116 13 16 24 34 24 40 0 5 9 15 20 21 11 6 20 17 20 24 0
17 87 85 120 93 14 3 37 14 51 24 15 10 53 21 85 25 33 4 64 11 70 16 7 5 27
3 50 -5 35 -11 39 -16 37 -46 -1 -19 -11 -44 -25 -59 -46 -51 -96 -148 -82
-161 2 -3 18 3 33 12 38 22 58 21 66 -3 10 -31 37 -24 75 21 19 23 41 47 48
55 9 9 12 37 10 86 l-3 73 76 5 c44 4 86 12 100 22 13 8 39 19 57 22 17 4 32
12 32 17 0 5 7 9 15 9 9 0 28 6 44 14 61 32 162 46 291 41 68 -3 129 -10 134
-15z m-786 -264 c-8 -6 -20 -21 -27 -33 -16 -30 -66 -32 -74 -3 -3 11 -1 23 5
26 5 3 13 17 18 30 6 14 18 24 29 24 10 0 25 7 32 16 12 15 15 14 23 -16 8
-25 6 -35 -6 -44z m-5150 -188 c-4 -42 -34 -51 -44 -14 -7 31 1 46 27 46 17 0
20 -6 17 -32z m-1667 -7577 c14 -10 53 -27 89 -38 57 -17 93 -43 58 -43 -18 0
-55 -50 -64 -86 -4 -16 -10 -33 -14 -39 -5 -5 -15 -35 -24 -65 -9 -30 -27 -76
-40 -102 -15 -31 -20 -52 -14 -62 21 -38 149 -1 188 54 21 29 52 42 110 45 19
1 52 9 73 17 33 13 47 13 95 2 65 -15 98 -45 108 -99 5 -31 9 -35 28 -29 11 4
34 16 49 26 23 17 40 19 94 16 62 -4 68 -6 104 -46 37 -39 39 -45 39 -102 0
-56 -3 -65 -32 -96 -42 -44 -85 -58 -156 -49 -49 6 -61 12 -94 48 -21 23 -38
50 -38 59 0 29 -17 30 -70 2 -42 -22 -59 -26 -100 -21 -73 9 -117 42 -130 98
-8 34 -9 58 -1 85 13 48 14 64 1 64 -5 0 -12 -17 -16 -37 -6 -38 -52 -143 -62
-143 -13 0 -88 24 -97 32 -5 4 -20 8 -34 8 -13 0 -33 7 -43 16 -10 10 -40 20
-67 25 -98 15 -231 89 -160 89 34 0 57 18 64 51 4 17 22 63 40 103 71 155 69
147 56 183 -7 18 -9 37 -6 43 10 16 40 12 66 -9z m8610 -48 c31 -19 43 -45 37
-84 -2 -20 -10 -25 -41 -27 -43 -4 -73 16 -88 56 -5 13 -15 22 -22 20 -21 -8
-20 -50 5 -102 43 -94 85 -109 143 -49 33 34 35 35 35 13 0 -33 -45 -88 -87
-105 -46 -20 -93 -19 -144 2 -35 14 -45 25 -65 70 -29 65 -30 83 -4 116 11 14
20 32 20 40 0 14 22 26 100 53 49 18 78 17 111 -3z m-309 -120 c10 -9 18 -22
18 -29 0 -19 68 -161 80 -169 21 -13 8 -31 -38 -53 -26 -12 -64 -22 -84 -22
-21 0 -38 -4 -38 -10 0 -5 -6 -10 -12 -10 -7 -1 -31 -9 -53 -20 -22 -11 -55
-19 -72 -20 -29 0 -33 3 -33 25 0 14 -9 48 -20 77 -11 29 -20 63 -20 75 0 13
-13 35 -30 50 -16 14 -30 30 -30 34 0 15 50 38 98 45 48 6 50 5 65 -26 9 -18
19 -48 23 -69 4 -20 11 -42 17 -49 5 -6 13 -27 16 -45 8 -36 39 -48 61 -23 10
13 8 25 -14 71 -14 31 -26 62 -26 70 0 8 -14 31 -32 51 -31 35 -31 37 -13 50
27 20 114 18 137 -3z m-754 -59 c12 -8 22 -21 22 -28 0 -14 26 -105 40 -141
25 -64 50 -145 50 -163 0 -15 8 -24 26 -28 18 -5 24 -12 22 -28 -2 -16 -14
-24 -48 -32 -25 -5 -53 -14 -62 -18 -40 -18 -52 -4 -69 79 -9 44 -23 94 -32
111 -9 17 -21 53 -27 80 -18 75 -31 108 -53 125 -19 15 -17 17 39 36 33 11 61
21 64 22 3 0 16 -6 28 -15z m387 -81 c13 -16 32 -52 41 -81 19 -59 33 -74 41
-43 10 40 23 21 23 -34 0 -41 -4 -57 -15 -60 -8 -3 -23 -8 -32 -12 -17 -6 -38
-10 -85 -16 -13 -1 -36 -11 -53 -22 -37 -25 -108 -27 -131 -3 -19 18 -24 69
-11 106 6 15 5 22 -5 22 -22 0 -36 14 -43 42 -6 22 0 34 35 72 44 47 57 52
153 55 52 1 61 -2 82 -26z m-579 -12 c25 -15 32 -28 37 -61 3 -24 1 -54 -4
-68 -11 -28 -5 -37 33 -56 48 -24 71 -141 33 -171 -48 -37 -170 -80 -255 -90
-30 -4 -65 -13 -77 -21 -24 -15 -79 -19 -87 -6 -3 5 4 16 15 25 21 18 25 66 9
98 -6 10 -14 38 -19 61 -5 24 -20 79 -34 123 -19 63 -29 81 -46 85 -25 6 -29
22 -9 31 20 10 96 30 165 42 34 7 65 15 69 20 16 16 138 7 170 -12z m-5951
-91 c4 -6 22 -17 41 -25 19 -8 34 -19 34 -24 0 -16 31 -13 44 3 9 12 23 11 93
-3 46 -9 88 -22 95 -29 15 -15 11 -87 -6 -116 -8 -11 -17 -43 -20 -71 -4 -27
-14 -81 -23 -119 -13 -56 -14 -72 -4 -89 10 -16 10 -21 -1 -28 -22 -14 -88
-10 -124 7 -44 21 -50 31 -30 52 8 10 22 54 31 97 9 44 25 109 36 145 30 101
24 139 -20 125 -14 -4 -20 -21 -27 -72 -5 -38 -14 -68 -22 -71 -16 -5 -42 57
-42 103 0 28 -5 37 -24 44 -13 5 -26 17 -29 25 -23 59 -122 -42 -151 -152 -20
-79 -20 -116 -1 -132 8 -7 15 -23 15 -36 0 -18 7 -25 28 -30 15 -3 32 -7 39
-9 22 -7 84 31 104 64 21 35 42 37 46 5 4 -28 -65 -97 -102 -103 -16 -2 -63
-4 -104 -4 l-75 0 -61 65 c-51 54 -63 73 -68 109 -5 42 6 128 20 152 20 35 68
87 79 87 7 0 18 9 24 20 10 18 21 20 105 20 53 0 97 -4 100 -10z m830 -164
c17 0 36 -5 43 -9 26 -17 5 -239 -31 -314 -7 -16 -7 -37 0 -68 6 -24 8 -47 5
-50 -12 -12 -45 -3 -66 18 -17 17 -27 20 -38 13 -8 -5 -23 -6 -32 -3 -18 7
-16 44 10 148 8 31 14 71 14 87 0 17 5 34 10 37 17 10 12 115 -5 121 -8 4 -15
13 -15 21 0 13 7 14 38 8 20 -4 51 -8 67 -9z m3841 -21 c1 -17 6 -53 9 -81 5
-39 2 -54 -9 -63 -18 -15 -36 -6 -36 18 0 10 -9 26 -20 36 -11 10 -20 28 -20
41 0 19 -7 24 -44 29 -50 8 -86 -6 -86 -34 0 -11 -7 -21 -15 -25 -31 -11 -11
-134 38 -238 18 -38 28 -48 59 -56 27 -7 40 -6 47 2 5 6 24 13 41 14 43 3 37
-25 -10 -52 -27 -16 -52 -21 -110 -20 -103 0 -153 24 -202 96 -36 51 -38 59
-38 129 0 69 3 78 35 127 29 42 48 58 93 78 50 22 65 25 122 19 36 -4 70 -11
76 -16 7 -6 18 -2 29 11 24 26 37 21 41 -15z m688 -20 c23 -18 36 -37 41 -63
4 -20 12 -40 18 -44 8 -5 6 -22 -6 -61 -19 -61 -50 -89 -107 -97 -45 -6 -50
-30 -16 -80 41 -63 28 -76 -84 -82 l-65 -3 -6 65 c-12 135 -55 304 -82 321
-22 15 3 39 40 39 21 1 48 6 60 13 12 7 56 13 98 15 68 2 79 0 109 -23z
m-4888 -42 c19 -7 18 -60 -5 -160 -11 -48 -15 -87 -10 -95 28 -43 -24 -59 -83
-26 -56 31 -66 63 -43 139 13 41 16 72 11 110 l-7 52 61 -7 c34 -4 68 -10 76
-13z m1009 2 c65 -8 125 -15 131 -15 7 0 26 -11 42 -25 23 -19 30 -35 35 -77
6 -44 3 -56 -13 -73 -20 -22 -20 -22 0 -67 17 -39 18 -53 10 -98 -6 -29 -15
-59 -21 -66 -18 -21 -82 -35 -141 -29 -248 23 -288 28 -299 41 -9 11 -6 16 14
23 23 9 26 17 32 86 4 41 11 78 16 81 5 3 9 47 9 98 0 89 -1 93 -25 104 -74
34 15 41 210 17z m3485 -18 c38 -19 46 -28 54 -62 20 -93 32 -119 57 -125 16
-4 20 -8 11 -14 -6 -4 -12 -16 -12 -27 0 -25 -41 -42 -102 -41 -27 1 -60 -6
-75 -14 -32 -16 -81 -18 -116 -5 -31 12 -42 55 -28 105 5 20 6 34 1 31 -12 -8
-28 17 -35 57 -6 31 -4 39 11 45 11 4 30 17 44 30 26 24 64 30 75 12 8 -12 17
-109 16 -160 -1 -22 5 -41 14 -49 23 -19 29 -6 15 34 -6 20 -9 50 -5 67 5 21
1 44 -10 70 -15 31 -15 41 -5 54 17 20 36 18 90 -8z m-1236 -17 c5 -5 8 -46 7
-90 -1 -45 2 -87 8 -93 5 -7 11 -51 13 -99 3 -63 9 -92 21 -105 25 -29 7 -43
-54 -42 -30 0 -63 -1 -74 -3 -17 -3 -20 3 -20 42 -1 25 -5 112 -9 193 -8 146
-17 177 -48 177 -6 0 -3 9 7 20 16 18 27 20 79 15 34 -3 65 -10 70 -15z
m-3075 -6 c5 -5 5 -36 -1 -74 -5 -36 -13 -99 -16 -140 l-7 -75 -59 2 c-78 3
-104 25 -82 69 17 35 36 134 36 193 l0 43 60 -4 c33 -2 64 -9 69 -14z m1251
-61 c0 -14 -11 -29 -27 -40 -16 -9 -30 -19 -33 -21 -3 -2 4 -10 15 -18 18 -14
20 -27 20 -137 0 -110 2 -122 18 -125 20 -4 60 26 51 39 -2 4 5 13 16 19 11 6
20 17 20 26 0 8 11 19 25 24 17 6 25 17 25 33 0 13 9 32 20 42 18 16 19 35 1
35 -4 0 -22 -20 -41 -45 -19 -25 -42 -45 -52 -45 -15 0 -18 9 -18 54 0 31 5
58 13 64 17 14 226 14 260 1 33 -14 34 -20 2 -57 -14 -17 -25 -33 -25 -37 0
-10 -52 -78 -81 -105 -34 -31 -47 -70 -24 -70 8 0 18 7 22 16 3 8 16 20 29 25
13 4 24 15 24 24 0 8 6 15 14 15 8 0 16 7 20 15 3 8 13 15 23 15 12 0 27 20
46 61 16 33 36 63 45 65 9 3 26 10 37 14 45 19 68 21 114 10 53 -13 94 -54 94
-96 0 -43 -17 -52 -93 -48 -69 4 -94 -6 -71 -29 6 -6 11 -21 11 -34 0 -25 28
-37 76 -31 23 2 30 9 32 31 2 16 8 27 15 24 19 -6 20 -46 3 -72 -13 -20 -26
-24 -99 -30 -100 -8 -116 -2 -153 60 -14 25 -29 45 -34 45 -4 0 -11 -23 -16
-51 l-9 -51 -120 1 c-66 1 -149 3 -185 6 -36 2 -88 4 -116 4 -27 1 -59 7 -69
15 -18 13 -18 15 -2 40 12 18 19 57 24 131 4 69 11 109 19 116 10 8 12 24 8
51 -9 53 9 86 50 90 36 4 75 -32 76 -69z m-920 2 c40 -21 50 -43 50 -115 0
-71 -18 -114 -59 -135 -34 -17 -111 -31 -111 -20 0 4 11 39 25 77 18 49 25 90
25 139 0 63 2 69 20 69 12 0 34 -7 50 -15z m2043 -38 c-1 -45 0 -47 30 -55 37
-10 46 -28 18 -37 -12 -3 -25 -15 -31 -25 -13 -24 -5 -183 9 -188 6 -2 23 6
38 18 25 20 28 27 25 73 -3 44 1 57 25 89 43 55 92 80 153 75 49 -4 68 -14
117 -65 26 -26 28 -35 12 -64 -10 -18 -17 -20 -64 -14 -47 5 -57 3 -80 -17
-24 -20 -26 -25 -14 -50 6 -14 20 -29 31 -33 26 -8 75 5 82 22 7 18 36 19 36
1 0 -15 -45 -59 -75 -75 -39 -20 -185 19 -185 49 0 5 -7 9 -15 9 -8 0 -15 -4
-15 -9 0 -6 -13 -24 -29 -42 -29 -31 -30 -31 -87 -23 -79 12 -100 40 -97 132
2 69 -11 132 -28 132 -5 0 -9 -15 -9 -33 0 -18 -7 -43 -16 -56 -15 -21 -22
-23 -70 -17 -30 3 -55 2 -59 -3 -6 -11 8 -105 19 -133 11 -23 -23 -31 -100
-23 l-64 7 5 30 c3 17 6 73 7 125 2 83 -1 97 -17 109 -13 10 -16 17 -8 25 12
12 263 1 263 -12 0 -26 43 1 100 61 77 81 96 85 93 17z m1019 -18 c18 -10 58
-65 58 -81 0 -14 -79 -48 -110 -48 -28 0 -31 2 -24 23 14 43 10 62 -15 65 -35
5 -45 -11 -27 -46 9 -18 13 -42 10 -64 -6 -32 -3 -37 30 -58 42 -25 81 -21 91
10 3 11 15 25 26 30 32 18 24 -21 -15 -66 l-34 -39 -82 0 c-81 0 -82 0 -116
37 -31 34 -34 43 -34 97 0 94 35 139 120 155 33 6 98 -2 122 -15z m671 -63
c15 -22 14 -24 -9 -35 -32 -14 -41 -14 -47 3 -6 14 18 56 32 56 5 0 16 -11 24
-24z"/>
<path d="M10444 11853 c-3 -16 -12 -53 -20 -84 -18 -72 -18 -100 1 -135 8 -16
15 -37 15 -46 0 -9 4 -19 9 -22 5 -3 12 -58 16 -121 6 -103 11 -123 40 -183
47 -95 57 -106 88 -98 23 5 28 16 47 98 19 79 21 109 15 198 -4 57 -11 112
-16 122 -10 19 -67 25 -85 9 -16 -15 -70 -21 -83 -8 -15 15 -14 97 4 190 19
101 19 107 -5 107 -13 0 -22 -9 -26 -27z"/>
<path d="M10309 11793 c-33 -8 -38 -119 -9 -195 24 -63 25 -91 6 -108 -12 -9
-21 -7 -45 11 -17 12 -33 30 -36 39 -8 25 -42 53 -49 41 -11 -17 26 -92 60
-125 51 -48 91 -76 107 -76 13 0 15 17 12 113 -5 154 -15 291 -23 298 -4 3
-14 4 -23 2z"/>
<path d="M4784 11636 c-58 -19 -136 -60 -142 -75 -3 -9 -21 -30 -39 -49 -43
-42 -63 -92 -63 -153 0 -61 18 -65 64 -14 18 19 38 35 44 35 6 0 38 14 72 31
75 38 195 53 206 25 8 -20 -14 -104 -30 -114 -19 -12 -56 -88 -56 -115 0 -71
54 -23 116 101 20 41 39 94 42 118 3 30 11 48 23 55 29 15 25 66 -7 92 -15 12
-36 32 -48 44 -17 16 -36 22 -87 25 -36 1 -79 -1 -95 -6z"/>
<path d="M11310 11624 c0 -18 18 -53 37 -72 7 -7 13 -20 13 -28 0 -7 9 -19 20
-26 11 -7 20 -23 20 -36 0 -12 6 -33 14 -45 17 -25 46 -144 46 -185 0 -38 26
-72 56 -72 18 0 32 12 55 48 31 47 31 47 26 158 -5 117 -15 147 -66 211 -14
18 -31 33 -37 33 -6 0 -17 7 -24 15 -18 22 -160 22 -160 -1z"/>
<path d="M11142 11505 c-18 -14 -20 -19 -9 -36 23 -37 167 -93 181 -71 11 18
-3 36 -61 80 -61 46 -77 50 -111 27z"/>
<path d="M5333 11395 c-23 -16 -68 -56 -118 -105 -16 -16 -42 -32 -57 -36 -32
-7 -34 1 -17 72 18 71 -1 78 -56 21 -25 -26 -45 -52 -45 -57 0 -5 -11 -26 -25
-46 -14 -20 -25 -45 -25 -55 0 -25 31 -24 53 1 16 19 19 19 47 5 27 -14 34
-13 83 5 29 11 66 34 82 50 16 17 34 30 41 30 18 0 95 91 92 109 -4 22 -29 24
-55 6z"/>
<path d="M10185 11350 c-8 -12 2 -30 17 -30 6 0 21 -10 33 -22 32 -32 44 -40
99 -71 54 -30 66 -33 66 -14 0 13 -73 77 -88 77 -5 0 -17 9 -28 21 -20 22 -66
49 -83 49 -5 0 -13 -4 -16 -10z"/>
<path d="M4767 11339 c-9 -6 -24 -23 -32 -39 -10 -20 -23 -30 -38 -30 -13 0
-32 -6 -43 -14 -19 -14 -19 -15 0 -48 10 -18 33 -46 52 -62 28 -23 37 -26 49
-16 8 7 15 29 15 49 0 20 7 63 15 96 15 64 11 80 -18 64z"/>
<path d="M5545 11341 c-41 -7 -53 -13 -158 -84 -57 -38 -83 -69 -72 -87 9 -15
48 -12 70 5 11 8 49 37 85 64 36 28 73 57 83 65 9 9 22 16 27 16 6 0 10 7 10
15 0 8 -1 14 -2 14 -2 -1 -21 -4 -43 -8z"/>
<path d="M11190 11328 c0 -21 12 -32 79 -76 76 -51 91 -52 91 -12 0 23 -6 33
-24 40 -13 5 -26 14 -28 20 -4 13 -72 40 -100 40 -10 0 -18 -6 -18 -12z"/>
<path d="M5641 11260 c-13 -11 -29 -20 -36 -20 -7 0 -37 -18 -65 -41 -46 -36
-50 -43 -38 -56 13 -12 20 -11 54 8 64 37 164 110 164 120 0 16 -55 9 -79 -11z"/>
<path d="M5858 11199 c-10 -5 -38 -16 -63 -23 -24 -8 -58 -25 -73 -37 -16 -13
-38 -29 -48 -35 -17 -10 -15 -13 21 -30 37 -18 40 -22 40 -61 0 -49 9 -62 25
-34 6 12 21 21 33 21 13 0 32 7 43 15 10 8 33 15 51 15 17 0 34 4 37 9 3 5 34
12 69 15 74 8 92 17 83 41 -5 15 -15 16 -74 10 -37 -4 -74 -13 -83 -21 -9 -8
-18 -11 -21 -8 -4 3 -21 -2 -38 -11 -63 -33 -113 13 -55 51 14 9 25 22 25 28
0 7 20 23 45 35 25 12 45 24 45 27 0 8 -45 3 -62 -7z"/>
<path d="M11174 11186 c-7 -18 13 -172 26 -196 26 -49 73 -111 102 -136 39
-32 76 -50 85 -40 10 9 -24 64 -69 112 -21 22 -46 50 -54 62 -8 12 -28 29 -45
37 -29 15 -36 38 -20 63 7 11 18 9 58 -12 28 -14 64 -37 81 -51 35 -29 53 -26
45 6 -11 39 -157 169 -191 169 -7 0 -15 -6 -18 -14z"/>
<path d="M10290 11120 c-13 -9 -12 -13 7 -29 17 -14 38 -19 83 -18 70 0 98 19
65 43 -22 16 -132 19 -155 4z"/>
<path d="M6063 10981 c-34 -9 -65 -19 -68 -23 -12 -11 42 -21 78 -14 17 4 55
11 82 16 100 18 115 22 109 31 -8 14 -133 8 -201 -10z"/>
<path d="M5571 10972 c-8 -14 -8 -29 -1 -47 5 -14 10 -36 10 -48 1 -44 65 -89
84 -59 10 16 -25 107 -54 141 -27 32 -29 32 -39 13z"/>
<path d="M5478 10813 c-5 -64 5 -150 20 -165 8 -8 15 -8 25 1 11 9 14 29 11
79 -5 75 -11 100 -30 119 -19 20 -22 17 -26 -34z"/>
<path d="M10515 10843 c-59 -5 -74 -15 -54 -39 24 -30 309 -7 309 24 0 19
-112 25 -255 15z"/>
<path d="M11170 10838 c0 -7 5 -29 10 -50 8 -28 7 -47 -5 -80 -21 -61 -19 -80
15 -154 31 -66 53 -85 72 -66 14 14 -4 64 -37 104 -29 34 -30 41 -10 61 21 21
48 11 94 -36 33 -33 41 -37 47 -24 8 23 -4 46 -62 122 -17 22 -45 61 -63 88
-30 44 -61 62 -61 35z"/>
<path d="M4400 10764 c0 -9 16 -34 35 -55 42 -47 46 -79 11 -79 -21 0 -59 24
-104 67 -18 18 -52 16 -52 -2 0 -8 6 -15 13 -15 6 0 23 -16 37 -35 25 -34 100
-85 126 -85 17 0 34 31 34 62 0 41 -30 109 -58 133 -32 29 -42 31 -42 9z"/>
<path d="M7710 10760 c-206 -31 -351 -61 -392 -80 -14 -7 -29 -22 -32 -34 -3
-11 -6 -1135 -6 -2498 0 -2335 1 -2477 18 -2497 20 -25 154 -60 347 -91 183
-30 681 -30 849 -1 204 36 306 70 320 106 8 22 6 4909 -2 4964 -7 43 -8 44
-57 58 -205 56 -400 81 -675 87 -208 4 -264 2 -370 -14z m680 -64 c160 -29
294 -59 323 -73 15 -8 32 -25 37 -39 13 -34 13 -4849 1 -4873 -13 -24 -67 -44
-186 -71 -143 -32 -257 -41 -535 -41 -244 0 -283 4 -435 35 -199 41 -227 50
-241 71 -12 18 -14 393 -14 2449 0 1537 3 2433 9 2445 13 23 113 56 216 70 44
7 112 18 150 26 107 22 124 23 360 20 150 -2 250 -8 315 -19z"/>
<path d="M7718 9748 c-2 -473 0 -618 9 -635 l13 -22 327 2 328 2 5 78 c4 60 2
82 -9 90 -9 8 -83 13 -222 15 -164 3 -210 6 -219 18 -9 10 -13 153 -14 536
l-1 523 -107 3 -108 3 -2 -613z"/>
<path d="M7702 8293 l3 -628 350 0 350 0 8 68 c12 112 24 107 -238 107 l-225
0 -16 24 c-13 22 -14 33 -4 82 8 37 10 94 5 165 -6 89 -5 109 6 110 8 1 97 0
199 -1 221 -2 221 -2 225 86 5 98 13 94 -209 94 -152 0 -196 3 -205 14 -15 18
-22 301 -7 322 9 12 17 13 43 3 47 -16 375 -8 396 10 13 10 17 31 17 92 l0 79
-351 0 -350 0 3 -627z"/>
<path d="M7995 7515 c-5 -1 -46 -11 -90 -21 -60 -14 -88 -26 -112 -49 -17 -16
-39 -37 -48 -45 -84 -77 -110 -235 -103 -619 6 -279 5 -270 57 -381 24 -52
121 -148 156 -154 17 -4 58 -13 92 -21 67 -16 183 -20 211 -6 9 4 48 18 86 31
81 27 147 85 166 148 5 15 18 52 29 82 31 82 45 246 37 454 -9 232 -9 240 -31
306 -28 85 -45 116 -100 175 -42 47 -61 59 -122 80 -53 18 -92 25 -145 24 -40
0 -77 -2 -83 -4z m114 -155 c41 -12 81 -52 110 -113 21 -43 22 -57 22 -375 0
-213 -4 -338 -10 -351 -6 -11 -11 -29 -11 -40 0 -28 -57 -86 -102 -105 -41
-18 -104 -21 -112 -7 -4 5 -26 19 -50 31 -47 22 -50 27 -72 105 -20 70 -29
388 -16 566 17 232 47 276 197 298 6 0 26 -3 44 -9z"/>
<path d="M6321 10741 c-128 -10 -97 -50 45 -59 95 -5 136 2 128 22 -5 14 -77
48 -92 44 -4 -1 -40 -4 -81 -7z"/>
<path d="M5345 10680 c-12 -26 -25 -40 -37 -40 -27 0 -74 -26 -82 -45 -10 -28
-7 -177 4 -170 6 3 10 25 10 48 0 33 7 50 29 75 39 42 55 41 80 -5 6 -13 20
-23 30 -23 23 0 30 47 22 135 -7 75 -29 85 -56 25z"/>
<path d="M4597 10690 c-23 -18 -24 -23 -15 -58 6 -20 24 -56 40 -79 37 -51 83
-65 178 -51 36 5 85 11 110 15 28 3 58 16 83 36 34 28 38 36 33 62 -12 57 -21
60 -200 60 -143 0 -166 2 -183 18 -19 17 -21 16 -46 -3z"/>
<path d="M10635 10695 c-20 -15 -20 -15 4 -35 28 -24 84 -26 135 -5 26 11 36
21 34 33 -5 24 -144 30 -173 7z"/>
<path d="M10825 10596 c-52 -15 -56 -37 -10 -59 20 -9 40 -17 46 -17 6 0 28
-19 50 -42 36 -39 40 -41 56 -26 15 16 15 18 -8 27 -24 10 -69 45 -69 54 0 2
14 10 30 17 31 13 54 42 43 54 -10 10 -95 5 -138 -8z"/>
<path d="M6326 10581 c-22 -24 -68 -28 -86 -6 -7 8 -24 15 -38 15 -23 0 -24
-2 -20 -45 4 -29 15 -56 34 -78 16 -19 40 -48 54 -66 15 -18 34 -31 47 -31 29
0 30 24 3 68 -29 48 -26 80 8 88 15 4 32 11 38 16 7 5 35 2 70 -7 68 -17 147
-20 142 -4 -4 13 -131 57 -188 65 -38 5 -48 2 -64 -15z"/>
<path d="M5103 10518 c-9 -11 -33 -107 -50 -190 -7 -38 12 -36 32 2 9 17 19
30 24 30 10 0 20 44 28 118 4 41 2 52 -10 52 -8 0 -19 -6 -24 -12z"/>
<path d="M11087 10513 c-13 -12 -7 -50 13 -94 11 -24 20 -56 20 -70 0 -15 7
-32 15 -39 50 -41 46 80 -5 158 -37 57 -34 55 -43 45z"/>
<path d="M4330 10492 c0 -29 113 -71 191 -72 28 0 68 24 57 35 -11 11 -187 55
-219 55 -22 0 -29 -5 -29 -18z"/>
<path d="M6440 10428 c0 -13 9 -36 20 -53 11 -17 20 -47 20 -70 1 -64 58 -118
101 -95 30 17 23 38 -15 45 -29 6 -76 36 -76 50 0 3 11 12 24 20 22 15 29 15
71 1 25 -9 55 -16 65 -16 30 0 24 27 -10 45 -16 9 -30 20 -30 25 0 5 -11 12
-25 16 -14 3 -25 10 -25 14 0 9 -79 40 -103 40 -11 0 -17 -8 -17 -22z"/>
<path d="M4948 10413 c-10 -2 -21 -15 -24 -29 -3 -13 -10 -24 -14 -24 -5 0
-25 -33 -45 -72 -21 -40 -44 -77 -51 -81 -20 -11 -17 -27 4 -27 26 0 82 29 82
42 0 6 11 25 24 42 36 48 56 92 56 126 0 16 -3 29 -7 29 -5 -1 -16 -3 -25 -6z"/>
<path d="M4779 10372 c-38 -26 -139 -140 -139 -157 0 -9 9 -15 24 -15 45 0
156 125 156 175 0 19 -9 19 -41 -3z"/>
<path d="M4531 10354 c-70 -26 -94 -42 -85 -55 8 -13 83 1 124 23 19 10 42 18
50 18 17 0 40 19 40 32 0 15 -65 6 -129 -18z"/>
<path d="M11014 10316 c-3 -9 1 -40 9 -69 9 -29 18 -69 22 -89 8 -49 33 -108
45 -108 19 0 10 102 -16 178 -30 87 -49 116 -60 88z"/>
<path d="M10919 10218 c-3 -54 4 -165 11 -173 5 -6 10 -35 12 -65 2 -41 7 -55
18 -55 13 0 15 20 15 125 0 146 -7 180 -35 180 -11 0 -20 -6 -21 -12z"/>
<path d="M10810 10060 c-11 -21 -7 -189 6 -242 7 -29 29 -54 37 -41 28 46 26
157 -6 266 -12 42 -21 46 -37 17z"/>
<path d="M6540 10033 c-36 -25 -125 -115 -144 -145 -72 -111 -76 -123 -76
-207 0 -94 -10 -121 -46 -121 -14 0 -27 -7 -31 -17 -4 -10 -15 -27 -25 -38
-73 -77 -98 -109 -98 -123 0 -9 -10 -42 -22 -72 -17 -44 -22 -77 -22 -165 -1
-117 -15 -163 -56 -185 -11 -6 -20 -15 -20 -20 0 -9 -8 -20 -55 -72 -24 -27
-70 -83 -105 -128 -14 -18 -43 -51 -64 -74 -22 -22 -46 -53 -55 -67 -9 -14
-26 -36 -38 -50 -66 -73 -83 -93 -83 -100 0 -4 -20 -37 -45 -72 -25 -36 -45
-68 -45 -72 0 -4 -13 -24 -30 -45 -16 -21 -30 -42 -30 -47 0 -15 -42 -87 -57
-98 -8 -6 -16 -38 -20 -82 -8 -95 1 -98 116 -39 49 25 100 46 112 46 12 0 54
11 93 24 39 13 106 27 149 31 42 4 80 11 83 16 3 5 14 9 24 9 10 0 27 13 36
30 10 16 25 32 33 35 20 8 44 -24 37 -50 -2 -11 -9 -38 -15 -60 -6 -22 -11
-70 -11 -107 0 -62 -2 -68 -21 -68 -29 0 -140 -54 -172 -84 -15 -14 -27 -31
-27 -39 0 -8 -12 -22 -26 -31 -16 -11 -24 -25 -22 -38 5 -34 24 -31 46 7 12
19 27 35 34 35 7 0 29 15 48 33 42 37 63 52 107 72 17 8 34 19 38 24 3 5 48
30 100 56 52 25 97 50 100 55 3 6 17 10 31 10 14 0 38 7 54 15 15 8 53 18 84
21 48 6 57 4 62 -11 5 -13 -1 -25 -20 -40 l-28 -22 31 -6 c58 -12 35 -66 -36
-86 -50 -14 -60 -37 -12 -27 34 6 69 -7 69 -28 0 -15 -163 -106 -190 -106 -11
0 -28 -9 -37 -20 -10 -11 -21 -20 -25 -20 -8 0 -64 -37 -88 -58 -44 -38 -163
-122 -180 -127 -29 -9 -20 -28 18 -39 42 -12 65 -4 147 49 38 25 76 45 85 45
8 0 37 11 64 25 27 13 65 27 85 31 20 3 65 15 101 27 38 12 106 23 163 26 122
7 126 26 5 26 -93 1 -120 11 -94 37 24 25 286 41 406 24 53 -7 54 -6 32 10
-17 11 -22 23 -18 38 4 16 -2 25 -27 39 -30 18 -30 20 -14 32 22 16 154 13
186 -4 26 -14 64 -14 59 0 -2 7 -29 25 -58 40 -79 41 -86 48 -63 64 11 8 34
17 53 22 63 17 50 35 -35 48 -21 3 -49 15 -62 26 -20 20 -26 20 -75 9 -29 -6
-70 -19 -92 -28 -38 -16 -39 -16 -57 7 -11 13 -19 34 -19 47 0 26 -34 54 -66
54 -12 0 -32 8 -45 19 -33 26 -13 47 54 56 29 3 72 10 97 16 25 5 72 14 104
20 95 18 48 29 -123 29 -156 0 -297 17 -356 44 -16 7 -43 17 -60 22 -20 6 -31
17 -33 31 -5 35 39 40 138 15 47 -12 96 -22 110 -22 14 0 55 -3 93 -6 56 -5
67 -3 67 10 0 10 -14 17 -47 21 -27 3 -61 10 -78 16 -16 6 -43 16 -60 21 -59
20 -178 82 -195 101 -23 24 -15 47 17 47 13 0 70 -12 125 -26 113 -29 141 -23
80 19 -21 15 -41 27 -45 27 -3 0 -31 19 -62 42 -46 34 -55 46 -53 67 3 22 8
26 33 24 16 -1 55 -13 85 -27 101 -45 171 -33 96 16 -20 13 -34 28 -32 33 2 6
40 10 89 9 89 -1 100 5 71 37 -14 15 -12 19 23 48 21 17 55 37 76 43 20 6 37
14 37 18 0 5 11 11 25 14 14 4 25 10 25 16 0 15 -30 19 -125 19 -49 0 -104 4
-120 9 -37 11 -71 0 -80 -27 -3 -12 -13 -21 -22 -21 -8 0 -28 -11 -45 -25 -16
-14 -41 -25 -54 -25 -14 0 -34 -5 -45 -11 -16 -8 -25 -7 -38 5 -24 22 -71 20
-101 -4 -14 -11 -30 -20 -37 -20 -7 0 -17 -9 -23 -20 -6 -11 -18 -20 -28 -20
-9 0 -28 -9 -42 -20 -14 -11 -39 -20 -56 -20 -16 0 -35 -5 -42 -12 -12 -12
-106 -17 -117 -6 -10 9 12 53 44 87 17 18 31 44 31 56 0 13 5 27 10 30 6 3 10
15 10 26 0 11 7 22 15 25 8 4 15 12 15 20 0 8 10 24 22 36 18 18 22 34 22 94
1 62 4 76 25 98 17 18 35 26 57 26 18 0 35 4 38 9 12 18 93 22 137 7 24 -9 60
-16 80 -16 24 0 78 -20 153 -56 102 -49 124 -56 176 -56 61 0 105 18 116 46 3
8 -9 29 -26 47 -24 26 -29 40 -25 59 9 36 21 47 58 54 18 4 53 19 78 35 51 32
63 66 53 145 -6 38 -10 43 -49 59 -33 14 -51 16 -77 9 -39 -11 -76 0 -85 24
-4 10 3 34 16 56 20 35 20 38 4 38 -10 0 -35 -11 -55 -25 -48 -33 -83 -32
-104 1 -16 24 -16 27 -1 54 34 56 8 70 -36 20 -31 -34 -62 -39 -77 -11 -16 31
-12 48 25 101 53 76 77 100 97 100 17 0 25 20 12 33 -10 9 -34 -4 -34 -19 0
-9 -11 -14 -32 -14 -22 0 -42 -9 -65 -32 -27 -26 -35 -29 -48 -18 -21 18 -19
57 5 70 11 6 20 17 20 26 0 8 6 17 14 20 8 3 22 17 31 30 15 23 14 24 -7 23
-13 0 -39 -12 -58 -26z m-600 -1353 c0 -10 -12 -40 -43 -110 -30 -68 -57 -143
-57 -160 0 -8 -8 -31 -18 -50 -11 -19 -22 -59 -25 -88 -10 -82 -32 -112 -97
-130 -30 -9 -82 -16 -115 -16 -59 -1 -60 -1 -63 28 -4 36 23 87 97 183 109
141 136 178 143 195 4 10 11 18 16 18 5 0 31 28 58 63 26 34 53 65 59 69 15
11 45 10 45 -2z"/>
<path d="M10444 9970 c-22 -16 -45 -40 -52 -54 -6 -13 -20 -27 -31 -31 -21 -6
-28 -29 -13 -39 22 -14 212 107 212 135 0 32 -68 25 -116 -11z"/>
<path d="M9460 9985 c0 -15 32 -63 59 -89 17 -15 33 -42 37 -59 3 -17 15 -44
25 -61 26 -43 24 -74 -5 -87 -35 -16 -75 -3 -87 28 -11 29 -81 103 -97 103
-28 0 -14 -38 38 -98 6 -7 10 -20 8 -30 -5 -23 -51 -19 -85 7 -25 20 -103 30
-103 14 0 -5 16 -21 35 -36 57 -45 42 -100 -21 -77 -54 21 -62 12 -39 -42 4
-11 -4 -26 -29 -48 -19 -18 -41 -49 -47 -69 -6 -20 -15 -40 -20 -45 -13 -14
-11 -161 2 -190 16 -35 -10 -70 -53 -70 -29 -1 -33 -4 -30 -26 1 -13 9 -28 17
-33 8 -4 15 -13 15 -20 0 -13 67 -87 79 -87 4 0 25 -15 46 -34 24 -22 54 -37
79 -42 61 -10 74 -20 83 -67 l9 -42 49 3 c26 2 59 1 72 -3 35 -8 29 -42 -12
-66 -62 -37 -38 -49 53 -28 26 6 63 19 83 30 40 21 84 25 94 9 10 -16 -4 -48
-24 -55 -11 -3 -32 -17 -47 -31 -38 -32 -42 -35 -86 -63 -21 -12 -38 -25 -38
-28 0 -11 134 8 191 27 32 11 65 20 74 20 25 0 17 -32 -17 -62 -38 -34 -168
-98 -198 -98 -12 0 -34 -7 -49 -14 -15 -8 -52 -18 -82 -21 -76 -9 -90 -15 -61
-26 26 -10 209 5 325 26 56 11 84 12 98 5 42 -23 16 -44 -106 -85 -29 -10
-108 -20 -190 -25 -214 -13 -288 -21 -279 -30 5 -4 61 -17 124 -29 122 -23
170 -38 170 -52 0 -13 -41 -36 -77 -44 -35 -7 -48 -19 -72 -68 -18 -37 -38
-38 -160 -7 -39 10 -48 9 -70 -8 -14 -10 -42 -22 -61 -25 -19 -4 -53 -11 -75
-15 -25 -5 -40 -13 -40 -22 0 -11 13 -15 57 -15 65 0 71 -4 63 -38 -5 -19 -19
-30 -58 -44 -61 -22 -73 -43 -25 -43 18 0 49 5 68 11 51 15 121 12 139 -6 21
-20 6 -33 -50 -43 l-44 -8 33 -8 c32 -8 42 -21 20 -28 -7 -3 -8 -10 -4 -17 6
-10 32 -12 105 -7 53 3 147 0 211 -7 108 -11 115 -13 118 -35 3 -22 1 -22 -80
-20 -46 1 -117 -4 -158 -11 -41 -7 -102 -16 -135 -21 -128 -19 -250 -63 -268
-97 -6 -10 -16 -22 -24 -26 -7 -4 -13 -16 -13 -25 0 -10 -4 -22 -9 -28 -6 -5
-11 -113 -12 -244 -3 -195 -1 -235 11 -235 10 0 13 15 11 60 -3 92 33 296 63
350 9 17 16 35 16 41 0 34 69 121 110 140 107 49 164 58 355 58 179 -1 269
-11 325 -37 43 -20 104 -59 125 -81 6 -6 18 -15 27 -21 9 -5 36 -24 61 -41 24
-18 70 -41 102 -53 55 -21 58 -21 96 -4 21 9 39 20 39 25 0 10 170 178 181
178 14 0 11 45 -5 82 -8 18 -17 44 -21 58 -7 30 -109 119 -144 126 -103 20
-107 44 -14 104 80 51 122 62 189 51 60 -11 151 -45 174 -66 22 -20 110 -21
110 -1 0 14 -27 83 -58 146 -9 19 -29 50 -44 68 -15 18 -28 43 -28 55 0 12 -9
33 -20 47 l-19 25 -13 -33 c-7 -18 -22 -35 -33 -38 -27 -7 -95 23 -95 41 0 8
-5 15 -12 15 -6 0 -31 20 -54 45 -38 39 -41 46 -26 54 12 6 31 3 62 -11 56
-26 115 -34 125 -18 4 7 -1 24 -12 38 -11 15 -23 39 -27 55 -3 15 -11 27 -16
27 -5 0 -15 -12 -22 -27 -12 -25 -18 -28 -60 -26 -51 3 -118 37 -118 59 0 8
-11 19 -25 24 -14 5 -25 16 -25 24 0 20 32 37 50 26 11 -7 104 20 118 35 2 1
-8 20 -23 40 -14 21 -25 42 -25 46 0 23 -28 5 -33 -21 -6 -29 -29 -40 -42 -20
-3 6 -16 10 -28 10 -12 1 -38 14 -57 30 -19 17 -39 30 -46 30 -6 0 -36 11 -66
24 -40 18 -58 33 -67 54 -7 16 -25 42 -41 57 l-29 28 -38 -26 c-56 -38 -120
-57 -195 -57 l-68 0 0 33 c0 25 8 38 34 60 19 15 45 27 58 27 22 0 23 3 23 77
0 66 -3 78 -18 81 -15 3 -17 -5 -17 -62 0 -51 -3 -66 -14 -66 -8 0 -18 5 -21
11 -4 5 -19 8 -33 5 -15 -3 -71 -8 -125 -11 -147 -7 -201 20 -294 143 -28 37
-29 48 -4 62 26 13 24 14 59 -20 21 -20 43 -30 64 -31 18 0 46 -3 62 -5 47 -8
206 27 266 57 30 16 67 29 82 29 15 0 29 4 32 9 7 10 87 22 176 26 95 5 140
-18 162 -82 10 -26 20 -65 24 -85 11 -63 24 -43 24 35 0 78 -6 92 -75 163 -17
17 -43 55 -60 85 -16 30 -53 82 -82 117 -29 34 -53 68 -53 76 0 7 -7 19 -15
26 -8 7 -15 20 -15 30 0 21 -23 42 -48 44 -53 6 -103 29 -127 60 -14 18 -25
39 -25 47 0 8 -9 31 -20 52 -11 20 -20 44 -20 53 0 21 -79 112 -112 130 -16 8
-28 12 -28 9z m1060 -1790 c49 -25 65 -54 40 -70 -21 -13 -150 65 -150 90 0
14 67 2 110 -20z m-756 -90 c28 -14 65 -34 81 -45 17 -11 36 -20 44 -20 8 0
36 -18 62 -40 26 -22 51 -40 55 -40 6 0 22 -15 66 -58 7 -8 24 -23 37 -35 200
-184 217 -212 157 -265 -27 -24 -46 -32 -74 -32 -46 0 -156 36 -173 56 -6 8
-19 14 -28 14 -9 1 -54 14 -101 31 -47 17 -105 37 -130 44 -25 8 -75 25 -112
39 -68 24 -173 43 -216 38 -12 -2 -28 2 -35 8 -6 5 -23 19 -37 29 -23 18 -24
21 -10 35 9 9 34 17 55 18 53 3 226 -35 350 -76 146 -49 155 -51 155 -26 0 11
-7 20 -15 20 -15 0 -58 20 -158 72 -32 17 -106 45 -165 63 -107 33 -142 56
-112 75 22 14 100 12 173 -5 62 -14 105 -31 215 -81 60 -27 62 -28 62 -14 0 6
-6 10 -13 10 -8 0 -22 9 -32 20 -10 11 -24 20 -31 20 -7 0 -18 9 -24 20 -6 11
-17 20 -26 20 -8 0 -17 7 -20 15 -4 8 -11 15 -18 15 -6 0 -39 13 -73 30 -46
21 -63 35 -63 49 0 11 6 22 13 25 22 10 88 -4 141 -29z"/>
<path d="M10702 9947 c-12 -13 -22 -30 -22 -38 0 -8 -4 -19 -9 -24 -15 -18
-35 -185 -23 -197 18 -18 40 8 58 71 9 31 20 66 25 79 11 29 12 132 1 132 -5
0 -18 -10 -30 -23z"/>
<path d="M10522 9742 c-38 -79 -54 -142 -34 -142 48 1 131 230 83 230 -3 0
-25 -39 -49 -88z"/>
<path d="M10383 9764 c-13 -14 -23 -31 -23 -38 0 -7 -18 -52 -40 -100 -52
-113 -53 -144 -2 -125 14 5 33 32 51 71 37 79 73 196 66 208 -10 17 -29 11
-52 -16z"/>
<path d="M10190 9660 c-30 -33 -59 -73 -65 -88 -7 -15 -19 -33 -28 -41 -20
-16 -23 -71 -4 -71 15 0 77 61 77 76 0 5 14 25 32 44 31 33 71 124 60 135 -11
10 -20 4 -72 -55z"/>
<path d="M6466 9048 c-9 -33 -7 -91 3 -107 22 -34 49 39 36 98 -8 36 -30 41
-39 9z"/>
<path d="M9816 9015 c-17 -26 -21 -45 -8 -45 8 0 42 52 42 64 0 14 -19 4 -34
-19z"/>
<path d="M6328 9014 c-11 -10 3 -34 19 -34 8 0 13 7 11 17 -3 18 -20 27 -30
17z"/>
<path d="M10140 8945 c0 -14 5 -25 10 -25 6 0 10 11 10 25 0 14 -4 25 -10 25
-5 0 -10 -11 -10 -25z"/>
<path d="M9760 8930 c0 -5 5 -10 10 -10 6 0 10 5 10 10 0 6 -4 10 -10 10 -5 0
-10 -4 -10 -10z"/>
<path d="M7050 8881 c-25 -22 -60 -54 -79 -71 -40 -37 -36 -46 16 -29 62 21
119 86 111 126 -2 11 -15 4 -48 -26z"/>
<path d="M9034 8888 c10 -53 80 -114 116 -103 23 7 27 35 5 35 -17 0 -63 47
-76 78 -5 13 -17 22 -30 22 -19 0 -21 -4 -15 -32z"/>
<path d="M10220 8785 c0 -24 36 -59 45 -44 5 7 1 16 -9 21 -9 5 -16 16 -16 23
0 8 -4 15 -10 15 -5 0 -10 -7 -10 -15z"/>
<path d="M6365 7950 c-3 -5 3 -10 14 -10 12 0 21 5 21 10 0 6 -6 10 -14 10 -8
0 -18 -4 -21 -10z"/>
<path d="M6304 7814 c-18 -15 -18 -15 11 -9 37 8 57 25 29 25 -11 0 -29 -7
-40 -16z"/>
<path d="M6968 7793 c6 -2 18 -2 25 0 6 3 1 5 -13 5 -14 0 -19 -2 -12 -5z"/>
<path d="M5820 7631 c0 -5 8 -17 17 -26 16 -16 17 -16 30 1 20 27 16 34 -17
34 -16 0 -30 -4 -30 -9z"/>
<path d="M7075 7590 c-4 -6 14 -34 40 -63 25 -28 51 -69 57 -89 13 -45 24 -48
31 -10 12 62 -21 125 -85 158 -32 17 -35 17 -43 4z"/>
<path d="M5890 7542 c0 -28 10 -52 22 -52 14 0 5 63 -9 68 -8 2 -13 -5 -13
-16z"/>
<path d="M9176 7434 c-9 -8 -16 -18 -16 -21 0 -14 52 -93 60 -93 5 0 21 -17
35 -37 27 -41 33 -91 13 -123 -11 -17 -9 -29 16 -76 16 -30 47 -78 68 -105 54
-67 89 -65 54 3 -26 49 -35 122 -29 233 5 103 3 113 -19 155 -28 51 -73 79
-130 80 -20 0 -43 -7 -52 -16z"/>
<path d="M6837 7419 c-22 -11 -42 -31 -47 -47 -6 -15 -15 -36 -22 -47 -8 -12
-13 -63 -13 -131 -1 -82 -5 -118 -16 -135 -9 -13 -19 -37 -23 -54 -4 -16 -9
-38 -12 -47 -9 -31 33 -8 81 43 60 64 78 108 79 192 1 57 5 71 21 82 11 8 25
18 31 23 5 5 19 14 31 20 30 17 48 67 35 97 -10 22 -18 25 -59 25 -28 -1 -64
-9 -86 -21z"/>
<path d="M6097 7384 c-24 -24 21 -81 56 -72 23 5 -2 72 -28 76 -12 2 -24 0
-28 -4z"/>
<path d="M9965 7340 c-3 -11 -13 -20 -21 -20 -8 0 -14 -4 -14 -10 0 -13 26
-13 69 2 47 16 46 15 31 33 -18 22 -57 19 -65 -5z"/>
<path d="M7164 7025 c-9 -14 -25 -25 -35 -25 -10 0 -23 -9 -28 -19 -6 -10 -24
-24 -41 -29 -16 -6 -53 -34 -81 -61 -29 -28 -58 -51 -65 -51 -8 0 -31 -9 -51
-20 -23 -12 -57 -20 -86 -20 -45 0 -81 -15 -115 -47 -18 -17 -58 -27 -79 -19
-9 4 -44 -2 -77 -14 -34 -11 -74 -22 -89 -25 -23 -5 -27 -10 -22 -26 9 -27 57
-99 67 -99 4 0 14 16 22 35 11 26 21 35 39 35 14 0 30 -6 37 -14 12 -16 35
-12 62 12 13 11 31 13 72 8 47 -6 56 -5 64 11 5 10 7 24 5 31 -10 26 18 42 74
42 42 0 55 4 59 18 12 38 23 47 60 52 22 3 51 13 64 23 13 9 39 17 58 17 36 0
49 18 34 47 -5 10 -6 29 -3 43 6 20 15 26 46 30 39 5 40 6 43 48 4 48 -9 54
-34 17z"/>
<path d="M8960 6977 c0 -7 -9 -21 -21 -30 -13 -12 -19 -27 -17 -45 3 -25 7
-27 50 -29 58 -3 101 24 79 51 -7 9 -19 16 -26 16 -8 0 -22 11 -33 25 -22 28
-32 32 -32 12z"/>
<path d="M6357 6965 c-12 -31 -7 -112 9 -144 19 -39 35 -46 64 -31 25 14 22
48 -10 92 -11 15 -20 33 -20 40 0 7 -9 24 -19 37 -16 21 -19 21 -24 6z"/>
<path d="M9800 6916 c-5 -15 -13 -38 -16 -52 -3 -13 -10 -27 -15 -30 -5 -3 -9
-16 -9 -30 0 -20 5 -24 29 -24 33 0 38 10 47 84 5 40 3 55 -10 65 -13 11 -17
10 -26 -13z"/>
<path d="M9104 6852 c-19 -27 -20 -59 -3 -77 11 -11 92 -7 126 6 20 7 22 12
13 28 -5 11 -20 23 -32 27 -13 3 -30 12 -38 19 -31 25 -48 24 -66 -3z"/>
<path d="M9315 6752 c-33 -61 -37 -72 -32 -86 8 -20 72 -21 107 -1 14 8 41 15
60 15 91 1 61 40 -61 79 -49 15 -63 14 -74 -7z"/>
<path d="M6337 6703 c-2 -5 1 -46 8 -93 12 -84 12 -85 14 -28 0 31 6 69 11 84
8 21 8 29 -2 36 -16 10 -26 10 -31 1z"/>
<path d="M9558 6640 c-31 -69 -58 -170 -58 -218 0 -44 23 -92 44 -92 14 1 56
35 56 47 0 8 80 120 97 135 4 5 28 24 53 44 25 20 48 45 52 55 8 20 -6 69 -19
69 -5 0 -52 2 -106 3 l-98 2 -21 -45z"/>
<path d="M6130 6621 c0 -6 -13 -26 -30 -44 -36 -41 -38 -57 -7 -57 28 0 89 65
85 89 -3 18 -48 29 -48 12z"/>
<path d="M5766 6555 c-4 -11 -12 -27 -17 -35 -21 -34 -41 -86 -45 -119 -4 -30
-3 -32 5 -14 6 12 19 31 30 42 12 12 21 34 21 49 0 15 5 33 11 39 6 6 9 21 7
34 -4 23 -5 23 -12 4z"/>
<path d="M5600 6426 c0 -19 4 -37 9 -40 11 -7 25 49 16 64 -13 21 -25 9 -25
-24z"/>
<path d="M5486 6405 c-9 -24 -7 -125 2 -125 13 0 54 97 50 117 -4 24 -44 29
-52 8z"/>
<path d="M5386 6328 c-9 -34 -7 -64 5 -95 10 -26 12 -27 19 -8 15 35 12 125
-4 125 -7 0 -16 -10 -20 -22z"/>
<path d="M5260 6190 c0 -46 18 -90 37 -90 14 0 17 45 7 99 -5 21 -12 31 -25
31 -15 0 -19 -8 -19 -40z"/>
<path d="M6930 6151 c0 -6 30 -24 68 -41 37 -17 84 -39 104 -50 20 -11 51 -20
68 -20 30 0 31 2 28 38 l-3 37 -70 8 c-38 5 -91 15 -117 23 -55 16 -78 18 -78
5z"/>
<path d="M9116 6151 c-5 -7 -33 -12 -146 -25 -80 -9 -98 -31 -62 -76 l19 -23
99 47 c130 62 127 61 132 74 4 14 -34 16 -42 3z"/>
<path d="M9520 6148 c0 -16 65 -69 74 -61 14 14 5 42 -19 57 -29 19 -55 21
-55 4z"/>
<path d="M11181 6128 c-21 -59 -18 -148 5 -125 14 13 36 81 38 112 1 38 -30
48 -43 13z"/>
<path d="M11788 6003 c-33 -5 -52 -27 -44 -49 5 -13 15 -15 49 -10 52 8 76 34
50 53 -9 7 -19 12 -22 12 -3 -1 -18 -4 -33 -6z"/>
<path d="M11880 5870 c-11 -7 -3 -10 28 -10 26 0 41 4 37 10 -8 13 -45 13 -65
0z"/>
<path d="M5048 5843 c-4 -29 34 -112 59 -126 17 -10 17 -47 1 -47 -7 0 -22 7
-32 15 -11 8 -26 15 -33 15 -26 0 -12 -27 32 -60 25 -18 47 -42 51 -52 6 -19
29 -24 39 -8 3 5 -1 26 -10 47 -10 24 -14 51 -10 73 4 24 1 42 -9 55 -9 11
-16 26 -16 33 0 15 -51 82 -62 82 -4 0 -8 -12 -10 -27z"/>
<path d="M11905 5770 c3 -5 13 -10 21 -10 8 0 14 5 14 10 0 6 -9 10 -21 10
-11 0 -17 -4 -14 -10z"/>
<path d="M9602 5728 c9 -27 130 -54 148 -33 8 10 4 17 -21 29 -38 19 -133 22
-127 4z"/>
<path d="M11915 5658 c15 -47 45 -49 45 -2 0 19 -5 24 -26 24 -22 0 -24 -3
-19 -22z"/>
<path d="M9610 5630 c0 -5 6 -10 14 -10 8 0 24 -12 35 -26 17 -21 31 -27 75
-30 62 -4 75 5 45 32 -35 31 -169 58 -169 34z"/>
<path d="M5063 5539 c16 -9 18 -21 15 -73 -3 -57 -1 -61 19 -64 16 -2 26 4 34
22 19 41 37 39 95 -11 44 -38 54 -53 54 -78 0 -19 -8 -39 -20 -50 -31 -28 -25
-45 15 -45 29 0 37 5 46 28 6 15 8 45 6 67 -5 32 -17 49 -67 97 -84 78 -147
118 -184 118 -27 -1 -29 -2 -13 -11z"/>
<path d="M11977 5514 c-7 -7 33 -54 46 -54 16 0 6 40 -12 50 -23 12 -26 12
-34 4z"/>
<path d="M9770 5480 c0 -5 14 -10 31 -10 17 0 28 4 24 10 -3 6 -17 10 -31 10
-13 0 -24 -4 -24 -10z"/>
<path d="M9841 5371 c-23 -15 -2 -31 40 -31 27 0 39 4 39 14 0 24 -51 35 -79
17z"/>
<path d="M10806 5353 c-14 -14 -4 -51 19 -71 14 -12 25 -26 25 -32 0 -5 7 -10
15 -10 21 0 19 18 -7 67 -22 42 -40 58 -52 46z"/>
<path d="M5483 5298 c-11 -13 -36 -35 -54 -50 -26 -22 -29 -28 -17 -33 10 -4
37 8 68 29 29 20 56 36 61 36 5 0 9 9 9 20 0 28 -41 26 -67 -2z"/>
<path d="M5565 5214 c-26 -28 -25 -44 4 -44 15 0 61 49 61 65 0 16 -44 1 -65
-21z"/>
<path d="M10625 5156 c-11 -7 -65 -21 -120 -31 -121 -21 -185 -49 -185 -81 0
-22 17 -34 51 -34 12 0 21 -9 25 -25 9 -37 40 -31 68 13 34 54 73 79 99 62 30
-19 93 14 117 61 11 20 16 39 13 43 -11 11 -48 7 -68 -8z"/>
<path d="M5953 5078 c-18 -11 -33 -24 -33 -29 0 -6 33 -9 77 -7 60 2 78 7 81
18 3 17 -41 40 -72 39 -12 0 -36 -10 -53 -21z"/>
<path d="M6002 4973 c-19 -7 84 -53 120 -53 23 0 29 4 26 18 -2 9 -14 18 -28
20 -14 2 -29 8 -34 13 -11 10 -62 11 -84 2z"/>
<path d="M5910 4366 c-36 -35 -74 -73 -84 -85 l-19 -21 52 0 c49 0 52 2 68 35
20 42 46 43 51 2 2 -19 9 -27 23 -27 22 0 23 10 8 78 -19 90 -25 91 -99 18z"/>
<path d="M6070 4373 c0 -10 4 -25 10 -33 8 -12 10 -12 16 3 7 20 -1 47 -16 47
-5 0 -10 -8 -10 -17z"/>
<path d="M5877 4204 c-10 -11 3 -24 24 -24 10 0 19 7 19 15 0 15 -31 21 -43 9z"/>
<path d="M5610 4193 c-8 -2 -21 -6 -28 -9 -10 -3 -9 -10 7 -30 11 -14 17 -32
14 -40 -8 -21 30 -18 50 4 39 43 10 93 -43 75z"/>
<path d="M5471 4129 c-13 -11 -21 -22 -18 -26 10 -10 67 18 67 33 0 20 -21 17
-49 -7z"/>
<path d="M4338 3669 c-25 -14 -24 -59 0 -59 25 0 56 35 49 55 -7 17 -24 19
-49 4z"/>
<path d="M4639 3573 c-16 -41 -39 -131 -39 -152 0 -29 28 -34 44 -8 17 29 39
126 35 156 -6 35 -27 37 -40 4z"/>
<path d="M4307 3584 c-10 -11 -8 -63 3 -85 13 -22 70 -26 131 -7 61 18 51 39
-31 66 -38 12 -76 25 -83 28 -7 2 -16 1 -20 -2z"/>
<path d="M11701 3707 c2 -1 12 -9 22 -16 15 -12 17 -12 11 3 -3 9 -13 16 -22
16 -8 0 -13 -1 -11 -3z"/>
<path d="M11726 3663 c-12 -12 -5 -23 14 -23 11 0 20 4 20 9 0 11 -26 22 -34
14z"/>
<path d="M11750 3568 c0 -16 4 -28 9 -28 18 0 20 17 6 36 -14 18 -14 18 -15
-8z"/>
<path d="M11074 3674 c-4 -14 -2 -30 5 -37 6 -6 11 -26 11 -43 0 -31 21 -64
40 -64 5 0 16 13 25 29 18 35 10 61 -30 109 -32 39 -43 40 -51 6z"/>
<path d="M11132 3488 c-9 -16 -9 -32 -3 -53 38 -118 55 -136 92 -93 16 18 19
31 14 58 -4 19 -8 43 -9 52 -3 22 -44 58 -66 58 -9 0 -22 -10 -28 -22z"/>
<path d="M10535 3380 c-3 -11 -3 -25 2 -32 4 -7 12 -42 18 -78 9 -54 14 -65
31 -65 17 0 19 7 17 83 -1 47 -7 89 -13 98 -18 20 -48 17 -55 -6z"/>
<path d="M6777 3273 c-4 -37 -3 -71 1 -75 4 -3 23 -3 42 1 34 7 35 8 38 60 4
60 -9 81 -48 81 -26 0 -27 -2 -33 -67z"/>
<path d="M6767 3152 c-3 -4 -9 -43 -13 -85 -7 -75 -6 -76 19 -88 57 -26 96 41
76 129 -4 19 -9 35 -11 37 -10 9 -67 15 -71 7z"/>
<path d="M7724 3138 c-24 -38 1 -97 29 -69 15 15 17 64 3 73 -16 11 -24 10
-32 -4z"/>
<path d="M8574 3136 c-10 -26 0 -50 26 -63 22 -11 26 -10 34 7 13 28 -8 70
-34 70 -11 0 -23 -6 -26 -14z"/>
</g>
</svg>
