<svg width="52" height="52" viewBox="0 0 52 52" fill="none" xmlns="http://www.w3.org/2000/svg">
<circle cx="26" cy="26" r="26" fill="#FF0000"/>
<path d="M36.4729 14.5366C37.3517 14.5366 38.0146 15.3075 37.66 16.7412L33.3588 37.0141C33.0582 38.4556 32.1871 38.8025 30.9846 38.1318L20.7248 30.5545C20.685 30.526 20.6526 30.4884 20.6303 30.4448C20.6079 30.4012 20.5962 30.353 20.5962 30.304C20.5962 30.255 20.6079 30.2068 20.6303 30.1632C20.6526 30.1197 20.685 30.082 20.7248 30.0535L32.5725 19.3543C33.1121 18.8764 32.4569 18.6452 31.7477 19.0768L16.8784 28.4579C16.8333 28.4873 16.7821 28.506 16.7286 28.5127C16.6752 28.5194 16.621 28.5138 16.57 28.4964L10.2569 26.5C8.85398 26.0914 8.85398 25.1279 10.5729 24.4418L35.8331 14.6985C36.0335 14.6024 36.251 14.5474 36.4729 14.5366V14.5366Z" stroke="white" stroke-linecap="round" stroke-linejoin="round"/>
</svg>
