<svg width="52" height="52" viewBox="0 0 52 52" fill="none" xmlns="http://www.w3.org/2000/svg">
<circle cx="26" cy="26" r="26" fill="#FF0000"/>
<path d="M42 26.6163C42 26.7078 42 26.8116 41.9963 26.9321C41.9926 27.2687 41.9853 27.6468 41.9779 28.0499C41.9484 29.2091 41.8969 30.3643 41.8158 31.4529C41.7054 32.9529 41.5433 34.2036 41.3223 35.1427C41.0891 36.1226 40.632 37.0164 39.9967 37.7346C39.3614 38.4529 38.5701 38.9704 37.7019 39.2355C36.6596 39.5512 34.6192 39.7465 31.7464 39.867C30.38 39.9252 28.9179 39.9626 27.4557 39.9834C26.9438 39.9917 26.4686 39.9958 26.0414 40H24.9586C24.5314 39.9958 24.0563 39.9917 23.5443 39.9834C22.0821 39.9626 20.62 39.9252 19.2536 39.867C16.3808 39.7424 14.3367 39.5471 13.2981 39.2355C12.4296 38.971 11.638 38.4537 11.0026 37.7354C10.3672 37.0171 9.9103 36.123 9.67768 35.1427C9.45301 34.2036 9.29464 32.9529 9.18415 31.4529C9.10312 30.3643 9.05156 29.2091 9.0221 28.0499C9.01105 27.6468 9.00737 27.2687 9.00368 26.9321C9.00368 26.8116 9 26.7078 9 26.6163V26.3837C9 26.2922 9 26.1884 9.00368 26.0679C9.00737 25.7313 9.01473 25.3532 9.0221 24.9501C9.05156 23.7909 9.10312 22.6357 9.18415 21.5471C9.29464 20.0471 9.4567 18.7964 9.67768 17.8573C10.1491 15.867 11.5339 14.2964 13.2981 13.7645C14.3367 13.4488 16.3808 13.2535 19.2536 13.133C20.62 13.0748 22.0821 13.0374 23.5443 13.0166C24.0563 13.0083 24.5314 13.0042 24.9586 13H26.0414C26.4686 13.0042 26.9438 13.0083 27.4557 13.0166C28.9179 13.0374 30.38 13.0748 31.7464 13.133C34.6192 13.2576 36.6633 13.4529 37.7019 13.7645C39.4661 14.2964 40.8509 15.8629 41.3223 17.8573C41.547 18.7964 41.7054 20.0471 41.8158 21.5471C41.8969 22.6357 41.9484 23.7909 41.9779 24.9501C41.989 25.3532 41.9926 25.7313 41.9963 26.0679C41.9963 26.1884 42 26.2922 42 26.3837V26.6163ZM39.3482 26.4003C39.3482 26.313 39.3482 26.2175 39.3445 26.1053C39.3409 25.7812 39.3335 25.4238 39.3261 25.0374C39.3003 23.9321 39.2488 22.8269 39.1714 21.8006C39.072 20.4626 38.932 19.3657 38.7589 18.6302C38.5306 17.6704 37.8603 16.91 37.0132 16.6565C36.2397 16.4238 34.2914 16.2368 31.6433 16.1247C30.3027 16.0665 28.8589 16.0291 27.4189 16.0083C26.9143 16 26.4465 15.9958 26.0267 15.9958H24.9733L23.5811 16.0083C22.1411 16.0291 20.701 16.0665 19.3567 16.1247C16.7086 16.241 14.7566 16.4238 13.9868 16.6565C13.1397 16.9141 12.4694 17.6704 12.2411 18.6302C12.068 19.3657 11.928 20.4626 11.8286 21.8006C11.7512 22.8269 11.7033 23.9321 11.6739 25.0374C11.6628 25.4238 11.6592 25.7853 11.6555 26.1053C11.6555 26.2175 11.6518 26.3172 11.6518 26.4003V26.5997C11.6518 26.687 11.6518 26.7825 11.6555 26.8947C11.6592 27.2188 11.6665 27.5762 11.6739 27.9626C11.6997 29.0679 11.7512 30.1731 11.8286 31.1994C11.928 32.5374 12.068 33.6343 12.2411 34.3698C12.4694 35.3296 13.1397 36.09 13.9868 36.3435C14.7603 36.5762 16.7086 36.7632 19.3567 36.8753C20.6973 36.9335 22.1411 36.9709 23.5811 36.9917C24.0857 37 24.5535 37.0042 24.9733 37.0042H26.0267L27.4189 36.9917C28.8589 36.9709 30.299 36.9335 31.6433 36.8753C34.2914 36.759 36.2434 36.5762 37.0132 36.3435C37.8603 36.0859 38.5306 35.3296 38.7589 34.3698C38.932 33.6343 39.072 32.5374 39.1714 31.1994C39.2488 30.1731 39.2967 29.0679 39.3261 27.9626C39.3372 27.5762 39.3409 27.2147 39.3445 26.8947C39.3445 26.7825 39.3482 26.6828 39.3482 26.5997V26.4003ZM22.2221 20.9321L30.7667 26.5416L22.2221 32.0679V20.9321Z" fill="white"/>
</svg>
